<svg xmlns="http://www.w3.org/2000/svg" viewBox="0 0 512 512">
  <defs>
    <linearGradient id="bg" x1="0" y1="0" x2="1" y2="1">
      <stop offset="0" stop-color="#f97316"/>
      <stop offset="1" stop-color="#c2410c"/>
    </linearGradient>
  </defs>
  <rect width="512" height="512" rx="112" fill="url(#bg)"/>
  <g transform="translate(76,84) scale(15)">
    <path d="M12 21s-7.5-4.7-9.8-9C.6 8.6 2.6 5 6.2 5c2 0 3.6 1 4.8 2.6h2c1.2-1.6 2.8-2.6 4.8-2.6 3.6 0 5.6 3.6 4 7-2.3 4.3-9.8 9-9.8 9z" fill="none" stroke="#ffffff" stroke-width="1.4" stroke-linecap="round" stroke-linejoin="round"/>
    <path d="M12 7.6c.5-.5 1.2-.8 2-.8 2 0 3 1.6 2.2 3.4-1 2.1-4.2 4.2-4.2 4.2s-3.2-2.1-4.2-4.2C6 8.4 7 6.8 9 6.8c.8 0 1.5.3 2 .8h1z" fill="#ffffff"/>
  </g>
</svg>
